<?xml version="1.0" encoding="UTF-8" standalone="no"?>
<!-- Generator: Adobe Illustrator 16.0.0, SVG Export Plug-In . SVG Version: 6.00 Build 0)  -->

<svg
   xmlns:dc="http://purl.org/dc/elements/1.1/"
   xmlns:cc="http://creativecommons.org/ns#"
   xmlns:rdf="http://www.w3.org/1999/02/22-rdf-syntax-ns#"
   xmlns:svg="http://www.w3.org/2000/svg"
   xmlns="http://www.w3.org/2000/svg"
   xmlns:xlink="http://www.w3.org/1999/xlink"
   xmlns:sodipodi="http://sodipodi.sourceforge.net/DTD/sodipodi-0.dtd"
   xmlns:inkscape="http://www.inkscape.org/namespaces/inkscape"
   version="1.1"
   id="Layer_4"
   x="0px"
   y="0px"
   width="2000"
   height="1600"
   viewBox="0 0 2000 1600"
   enable-background="new 0 0 2000 1600"
   xml:space="preserve"
   inkscape:version="0.91 r13725"
   sodipodi:docname="okt6-02.svg"><metadata
     id="metadata1033"><rdf:RDF><cc:Work
         rdf:about=""><dc:format>image/svg+xml</dc:format><dc:type
           rdf:resource="http://purl.org/dc/dcmitype/StillImage" /><dc:title /></cc:Work></rdf:RDF></metadata><defs
     id="defs1031" /><sodipodi:namedview
     pagecolor="#ffffff"
     bordercolor="#666666"
     borderopacity="1"
     objecttolerance="10"
     gridtolerance="10"
     guidetolerance="10"
     inkscape:pageopacity="0"
     inkscape:pageshadow="2"
     inkscape:window-width="1440"
     inkscape:window-height="823"
     id="namedview1029"
     showgrid="false"
     inkscape:zoom="0.519375"
     inkscape:cx="308.7846"
     inkscape:cy="800"
     inkscape:window-x="0"
     inkscape:window-y="0"
     inkscape:window-maximized="1"
     inkscape:current-layer="landmarks-01"
     fit-margin-top="0"
     fit-margin-right="0"
     fit-margin-left="0"
     fit-margin-bottom="0" /><g
     id="landmarks-01"
     transform="translate(-1043.3213,-453.54995)"><g
       id="g3"
       enable-background="new    "><g
         id="g5"><polygon
           id="polygon7"
           points="2445.784,774.936 2443.403,843.896 2440.084,891.013 2442.465,822.052 "
           style="fill:#294a5e" /></g><g
         id="g9"><polygon
           id="polygon11"
           points="2442.465,822.052 2440.084,891.013 2391.65,924.827 2394.031,855.865 "
           class="medium" /></g><g
         id="g13"><polygon
           id="polygon15"
           points="2442.465,822.052 2394.031,855.865 2328.862,856.562 2164.258,733.045 2167.571,685.933 2216.006,652.119 2281.18,651.418 2445.784,774.936 "
           class="bright" /></g><g
         id="g17"><polygon
           id="polygon19"
           points="2394.031,855.865 2391.65,924.827 2326.482,925.523 2328.862,856.562 "
           style="fill:#315a73" /></g><g
         id="g21"><polygon
           id="polygon23"
           points="2328.862,856.562 2326.482,925.523 2161.878,802.007 2164.258,733.045 "
           class="dark" /></g></g><g
       id="g25"
       enable-background="new    "><g
         id="g27"
         enable-background="new    "><defs
           id="defs29"><path
             d="m 2587.674,903.304 c -0.476,13.793 -0.952,27.584 -1.429,41.377 -0.317,9.195 -0.634,18.389 -0.952,27.584 -0.561,16.232 -9.473,32.197 -26.699,44.224 l 2.38,-68.961 c 17.227,-12.027 26.139,-27.991 26.7,-44.224 z"
             enable-background="new    "
             id="SVGID_1_"
             inkscape:connector-curvature="0" /></defs><clipPath
           id="SVGID_2_"><use
             id="use33"
             overflow="visible"
             xlink:href="#SVGID_1_"
             style="overflow:visible"
             x="0"
             y="0"
             width="100%"
             height="100%" /></clipPath><g
           id="g35"
           enable-background="new    "
           clip-path="url(#SVGID_2_)"><path
             id="path37"
             d="m 2587.674,903.304 -2.381,68.961 c -0.042,1.219 -0.131,2.437 -0.268,3.651 l 2.381,-68.961 c 0.137,-1.214 0.226,-2.432 0.268,-3.651"
             inkscape:connector-curvature="0"
             style="fill:#294a5e" /><path
             id="path39"
             d="m 2587.406,906.955 -2.381,68.961 c -0.403,3.593 -1.219,7.159 -2.445,10.658 l 2.381,-68.961 c 1.227,-3.499 2.042,-7.065 2.445,-10.658"
             inkscape:connector-curvature="0"
             style="fill:#2c5066" /><path
             id="path41"
             d="m 2584.961,917.613 -2.381,68.961 c -1.558,4.443 -3.779,8.777 -6.664,12.921 l 2.381,-68.961 c 2.885,-4.144 5.106,-8.478 6.664,-12.921"
             inkscape:connector-curvature="0"
             style="fill:#2f566e" /><path
             id="path43"
             d="m 2578.297,930.534 -2.381,68.961 c -4.301,6.18 -10.076,11.936 -17.322,16.995 l 2.38,-68.961 c 7.247,-5.06 13.022,-10.816 17.323,-16.995"
             inkscape:connector-curvature="0"
             style="fill:#335c75" /></g></g><g
         id="g45"><path
           id="path47"
           d="m 2560.974,947.528 c -35.306,24.648 -92.163,23.438 -126.999,-2.702 -34.836,-26.14 -34.455,-67.311 0.851,-91.958 35.3,-24.645 92.163,-23.438 126.999,2.702 34.836,26.14 34.448,67.314 -0.851,91.958 z"
           inkscape:connector-curvature="0"
           class="bright" /></g><g
         id="g49"
         enable-background="new    "><defs
           id="defs51"><path
             d="m 2405.742,966.053 c 0.793,-22.988 1.588,-45.973 2.381,-68.961 -0.588,17.028 8.016,34.351 25.852,47.734 34.836,26.141 91.693,27.35 126.999,2.702 l -2.38,68.961 c -35.307,24.648 -92.164,23.438 -127,-2.702 -17.835,-13.383 -26.44,-30.706 -25.852,-47.734 z"
             enable-background="new    "
             id="SVGID_3_"
             inkscape:connector-curvature="0" /></defs><clipPath
           id="SVGID_4_"><use
             id="use55"
             overflow="visible"
             xlink:href="#SVGID_3_"
             style="overflow:visible"
             x="0"
             y="0"
             width="100%"
             height="100%" /></clipPath><g
           id="g57"
           enable-background="new    "
           clip-path="url(#SVGID_4_)"><path
             id="path59"
             d="m 2560.974,947.528 -2.38,68.961 c -5.557,3.879 -11.646,7.118 -18.101,9.719 l 2.38,-68.961 c 6.455,-2.601 12.545,-5.84 18.101,-9.719"
             inkscape:connector-curvature="0"
             style="fill:#335c75" /><path
             id="path61"
             d="m 2542.874,957.248 -2.381,68.961 c -5.606,2.26 -11.487,4.04 -17.532,5.341 l 2.381,-68.961 c 6.045,-1.302 11.926,-3.081 17.532,-5.341"
             inkscape:connector-curvature="0"
             style="fill:#2f566e" /><path
             id="path63"
             d="m 2525.342,962.588 -2.381,68.961 c -4.764,1.026 -9.629,1.754 -14.54,2.188 l 2.38,-68.962 c 4.912,-0.432 9.777,-1.161 14.541,-2.187"
             inkscape:connector-curvature="0"
             style="fill:#2c5066" /><path
             id="path65"
             d="m 2510.801,964.775 -2.38,68.962 c -4.589,0.404 -9.22,0.55 -13.846,0.439 l 2.381,-68.962 c 4.626,0.112 9.257,-0.034 13.845,-0.439"
             inkscape:connector-curvature="0"
             style="fill:#294a5e" /><path
             id="path67"
             d="m 2496.956,965.215 -2.381,68.962 c -4.757,-0.114 -9.511,-0.501 -14.212,-1.158 l 2.381,-68.961 c 4.701,0.657 9.455,1.043 14.212,1.157"
             inkscape:connector-curvature="0"
             style="fill:#254457" /><path
             id="path69"
             d="m 2482.744,964.058 -2.381,68.961 c -5.439,-0.76 -10.81,-1.883 -16.035,-3.368 l 2.381,-68.961 c 5.226,1.484 10.596,2.607 16.035,3.368"
             inkscape:connector-curvature="0"
             style="fill:#223e4f" /><path
             id="path71"
             d="m 2466.709,960.689 -2.381,68.961 c -11.969,-3.399 -23.18,-8.694 -32.734,-15.863 -17.835,-13.383 -26.439,-30.707 -25.852,-47.735 l 2.381,-68.961 c -0.588,17.028 8.016,34.351 25.852,47.734 9.554,7.171 20.765,12.465 32.734,15.864"
             inkscape:connector-curvature="0"
             style="fill:#1f3847" /></g></g></g><g
       id="room-242"
       enable-background="new    "><g
         id="g75"><polygon
           id="polygon77"
           points="2634.355,913.226 2854.985,1078.783 2731.692,1164.858 2511.062,999.3 "
           class="bright" /></g><g
         id="g79"><polygon
           id="polygon81"
           points="2508.682,1068.262 2511.062,999.3 2731.692,1164.858 2729.312,1233.819 "
           class="dark" /></g><g
         id="g83"><polygon
           id="polygon85"
           points="2729.312,1233.819 2731.692,1164.858 2854.985,1078.783 2852.605,1147.744 "
           class="medium" /></g></g><g
       id="g87"
       enable-background="new    "><g
         id="g89"><polygon
           id="polygon91"
           points="2121.814,758.026 2119.433,826.987 2101.286,813.37 2103.666,744.408 "
           class="dark" /></g><g
         id="g93"><polygon
           id="polygon95"
           points="2156.328,764.396 2153.948,833.357 2149.732,836.299 2152.113,767.338 "
           class="medium" /></g><g
         id="g97"><polygon
           id="polygon99"
           points="2117.148,734.996 2156.328,764.396 2152.113,767.338 2160.893,773.926 2083.585,827.897 2025.954,784.651 2066.721,756.191 2094.54,777.066 2121.814,758.026 2103.666,744.408 "
           class="bright" /></g><g
         id="g101"><polygon
           id="polygon103"
           points="2160.893,773.926 2158.513,842.888 2081.205,896.859 2083.585,827.897 "
           class="medium" /></g><g
         id="g105"><polygon
           id="polygon107"
           points="2083.585,827.897 2081.205,896.859 2023.573,853.613 2025.954,784.651 "
           class="dark" /></g></g><g
       id="g109"
       enable-background="new    "><g
         id="g111"><polygon
           id="polygon113"
           points="2142.15,835.949 2118.163,817.949 2174.745,778.447 2198.732,796.447 "
           class="bright" /></g><g
         id="g115"><polygon
           id="polygon117"
           points="2142.15,835.949 2139.77,904.911 2115.782,886.911 2118.163,817.949 "
           class="dark" /></g><g
         id="g119"><polygon
           id="polygon121"
           points="2198.732,796.447 2196.353,865.409 2139.77,904.911 2142.15,835.949 "
           class="medium" /></g></g><g
       id="g123"
       enable-background="new    "><g
         id="g125"><polygon
           id="polygon127"
           points="2116.514,819.101 2140.501,837.101 2112.207,856.854 2088.22,838.854 "
           class="bright" /></g><g
         id="g129"><polygon
           id="polygon131"
           points="2140.501,837.101 2138.12,906.062 2109.827,925.815 2112.207,856.854 "
           class="medium" /></g><g
         id="g133"><polygon
           id="polygon135"
           points="2112.207,856.854 2109.827,925.815 2085.839,907.815 2088.22,838.854 "
           class="dark" /></g></g><g
       id="g193"
       enable-background="new    "><g
         id="g195"><polygon
           id="polygon197"
           points="2397.162,1173.905 2394.781,1242.866 2395.113,1206.957 2397.494,1137.996 "
           style="fill:#1c3240" /></g><g
         id="g199"
         enable-background="new    "><defs
           id="defs201"><path
             d="m 2534.424,1224.452 c 0.198,-5.747 0.396,-11.493 0.596,-17.24 0.476,-13.793 0.951,-27.584 1.428,-41.377 0.119,-3.448 0.238,-6.896 0.357,-10.344 -0.34,9.852 4.593,19.873 14.82,27.653 l -2.38,68.962 c -10.228,-7.782 -15.161,-17.803 -14.821,-27.654 z"
             enable-background="new    "
             id="SVGID_5_"
             inkscape:connector-curvature="0" /></defs><clipPath
           id="SVGID_6_"><use
             id="use205"
             overflow="visible"
             xlink:href="#SVGID_5_"
             style="overflow:visible"
             x="0"
             y="0"
             width="100%"
             height="100%" /></clipPath><g
           id="g207"
           enable-background="new    "
           clip-path="url(#SVGID_6_)"><path
             id="path209"
             d="m 2551.625,1183.144 -2.38,68.962 c -10.229,-7.781 -15.161,-17.803 -14.821,-27.654 l 2.381,-68.961 c -0.34,9.851 4.592,19.872 14.82,27.653"
             inkscape:connector-curvature="0"
             style="fill:#1f3847" /></g></g><g
         id="g211"><polygon
           id="polygon213"
           points="2516.895,1176.452 2514.515,1245.414 2479.209,1270.062 2481.59,1201.1 "
           class="medium" /></g><g
         id="g215"><polygon
           id="polygon217"
           points="2482.392,1114.403 2517.227,1140.543 2516.895,1176.452 2481.59,1201.1 2431.998,1200.045 2397.162,1173.905 2397.494,1137.996 2432.8,1113.348 "
           class="bright" /></g><g
         id="g219"><polygon
           id="polygon221"
           points="2481.59,1201.1 2479.209,1270.062 2429.617,1269.006 2431.998,1200.045 "
           style="fill:#305870" /></g><g
         id="g223"><polygon
           id="polygon225"
           points="2431.998,1200.045 2429.617,1269.006 2394.781,1242.866 2397.162,1173.905 "
           class="dark" /></g><g
         id="g227"><polygon
           id="polygon229"
           points="2711.599,1178.595 2709.218,1247.556 2611.565,1315.73 2613.946,1246.769 "
           class="medium" /></g><g
         id="g231"><path
           id="path233"
           d="m 2552.372,1129.703 c 20.51,-14.319 53.477,-13.673 73.813,1.388 l 11.453,-7.995 73.96,55.499 -97.652,68.174 -73.96,-55.499 11.639,-8.126 c -20.056,-15.257 -19.752,-39.13 0.747,-53.441 z"
           inkscape:connector-curvature="0"
           class="bright" /></g><g
         id="g235"><polygon
           id="polygon237"
           points="2613.946,1246.769 2611.565,1315.73 2537.605,1260.231 2539.986,1191.27 "
           class="dark" /></g></g><g
       id="g239"
       enable-background="new    "><g
         id="g241"><polygon
           id="polygon243"
           points="2548.1,1300.063 2464.782,1237.543 2529.833,1192.13 2613.15,1254.649 "
           class="bright" /></g><g
         id="g245"><polygon
           id="polygon247"
           points="2548.1,1300.063 2545.719,1369.025 2462.402,1306.505 2464.782,1237.543 "
           class="dark" /></g><g
         id="g249"><polygon
           id="polygon251"
           points="2613.15,1254.649 2610.77,1323.611 2545.719,1369.025 2548.1,1300.063 "
           class="medium" /></g></g><g
       id="g253"
       enable-background="new    "><g
         id="g255"><polygon
           id="polygon257"
           points="2072.65,836.856 2070.27,905.817 2050.752,910.652 2053.132,841.691 "
           style="fill:#386782" /></g><g
         id="g259"><polygon
           id="polygon261"
           points="2053.132,841.691 2050.752,910.652 2045.412,914.38 2047.792,845.419 "
           class="medium" /></g><g
         id="g263"><polygon
           id="polygon265"
           points="2032.661,855.983 2030.28,924.944 1977.341,885.22 1979.722,816.258 "
           class="dark" /></g><g
         id="g267"><polygon
           id="polygon269"
           points="2053.132,841.691 2047.792,845.419 2032.661,855.983 1979.722,816.258 2003.122,799.921 2005.768,801.906 2016.288,794.562 2072.65,836.856 "
           class="bright" /></g><g
         id="g271"><polygon
           id="polygon273"
           points="2047.792,845.419 2045.412,914.38 2030.28,924.944 2032.661,855.983 "
           class="medium" /></g><g
         id="g275"><polygon
           id="polygon277"
           points="2091.099,854.031 2088.719,922.993 2083.075,926.933 2085.456,857.972 "
           class="medium" /></g><g
         id="g279"
         enable-background="new    "><defs
           id="defs281"><path
             d="m 2013.144,861.558 -2.38,68.962 c -0.1,2.881 -0.837,5.741 -2.213,8.46 l 2.38,-68.961 c 1.375,-2.72 2.113,-5.581 2.213,-8.461 z"
             enable-background="new    "
             id="SVGID_7_"
             inkscape:connector-curvature="0" /></defs><clipPath
           id="SVGID_8_"><use
             id="use285"
             overflow="visible"
             xlink:href="#SVGID_7_"
             style="overflow:visible"
             x="0"
             y="0"
             width="100%"
             height="100%" /></clipPath><g
           id="g287"
           enable-background="new    "
           clip-path="url(#SVGID_8_)"><path
             id="path289"
             d="m 2013.144,861.558 -2.38,68.962 c -0.018,0.503 -0.054,1.005 -0.111,1.506 l 2.381,-68.961 c 0.056,-0.502 0.092,-1.004 0.11,-1.507"
             inkscape:connector-curvature="0"
             style="fill:#294a5e" /><path
             id="path291"
             d="m 2013.033,863.064 -2.381,68.961 c -0.166,1.478 -0.501,2.945 -1.005,4.384 l 2.38,-68.961 c 0.505,-1.439 0.84,-2.906 1.006,-4.384"
             inkscape:connector-curvature="0"
             style="fill:#2c5066" /><path
             id="path293"
             d="m 2012.027,867.448 -2.38,68.961 c -0.304,0.868 -0.669,1.726 -1.097,2.57 l 2.38,-68.961 c 0.428,-0.844 0.794,-1.702 1.097,-2.57"
             inkscape:connector-curvature="0"
             style="fill:#2f566e" /></g></g><g
         id="g295"><polygon
           id="polygon297"
           points="2072.408,877.89 2070.027,946.852 2062.564,941.252 2064.945,872.29 "
           class="dark" /></g><g
         id="g299"><polygon
           id="polygon301"
           points="2092.918,863.571 2090.538,932.533 2070.027,946.852 2072.408,877.89 "
           class="medium" /></g><g
         id="g303"><polygon
           id="polygon305"
           points="2049.306,883.208 2046.926,952.17 2022.154,933.582 2024.535,864.62 "
           class="dark" /></g><g
         id="g307"><polygon
           id="polygon309"
           points="2054.219,843.897 2074.044,839.013 2077.84,844.082 2091.099,854.031 2085.456,857.972 2092.918,863.571 2072.408,877.89 2064.945,872.29 2049.306,883.208 2024.535,864.62 "
           class="bright" /></g><g
         id="g311"><polygon
           id="polygon313"
           points="2064.945,872.29 2062.564,941.252 2046.926,952.17 2049.306,883.208 "
           class="medium" /></g><g
         id="g315"
         enable-background="new    "><defs
           id="defs317"><path
             d="m 1936.815,927.959 c 0.794,-22.988 1.587,-45.973 2.381,-68.961 -0.242,7.014 3.302,14.149 10.647,19.662 10.363,7.777 25.463,10.189 38.53,7.106 l -2.38,68.961 c -13.068,3.083 -28.167,0.67 -38.531,-7.106 -7.345,-5.512 -10.889,-12.647 -10.647,-19.662 z"
             enable-background="new    "
             id="SVGID_9_"
             inkscape:connector-curvature="0" /></defs><clipPath
           id="SVGID_10_"><use
             id="use321"
             overflow="visible"
             xlink:href="#SVGID_9_"
             style="overflow:visible"
             x="0"
             y="0"
             width="100%"
             height="100%" /></clipPath><g
           id="g323"
           enable-background="new    "
           clip-path="url(#SVGID_10_)"><path
             id="path325"
             d="m 1988.374,885.766 -2.38,68.961 c -0.297,0.07 -0.596,0.137 -0.895,0.202 l 2.38,-68.961 c 0.299,-0.065 0.598,-0.132 0.895,-0.202"
             inkscape:connector-curvature="0"
             style="fill:#2f566e" /><path
             id="path327"
             d="m 1987.479,885.968 -2.38,68.961 c -1.964,0.423 -3.969,0.724 -5.994,0.902 l 2.381,-68.961 c 2.024,-0.179 4.03,-0.479 5.993,-0.902"
             inkscape:connector-curvature="0"
             style="fill:#2c5066" /><path
             id="path329"
             d="m 1981.485,886.87 -2.381,68.961 c -1.894,0.167 -3.804,0.228 -5.712,0.182 l 2.38,-68.961 c 1.91,0.045 3.82,-0.015 5.713,-0.182"
             inkscape:connector-curvature="0"
             style="fill:#294a5e" /><path
             id="path331"
             d="m 1975.772,887.051 -2.38,68.961 c -1.958,-0.047 -3.915,-0.206 -5.849,-0.477 l 2.381,-68.961 c 1.934,0.271 3.89,0.43 5.848,0.477"
             inkscape:connector-curvature="0"
             style="fill:#254457" /><path
             id="path333"
             d="m 1969.924,886.575 -2.381,68.961 c -2.234,-0.312 -4.439,-0.772 -6.585,-1.381 l 2.38,-68.961 c 2.146,0.609 4.351,1.069 6.586,1.381"
             inkscape:connector-curvature="0"
             style="fill:#223e4f" /><path
             id="path335"
             d="m 1963.338,885.194 -2.38,68.961 c -4.934,-1.398 -9.556,-3.579 -13.495,-6.534 -7.346,-5.512 -10.89,-12.647 -10.647,-19.662 l 2.381,-68.961 c -0.242,7.014 3.302,14.149 10.647,19.662 3.937,2.955 8.56,5.135 13.494,6.534"
             inkscape:connector-curvature="0"
             style="fill:#1f3847" /></g></g><g
         id="g337"><polygon
           id="polygon339"
           points="2100.323,919.781 2061.422,890.59 2096.639,866.004 2135.541,895.195 "
           class="bright" /></g><g
         id="g341"><polygon
           id="polygon343"
           points="2100.323,919.781 2097.943,988.743 2059.042,959.551 2061.422,890.59 "
           class="dark" /></g><g
         id="g345"><polygon
           id="polygon347"
           points="2135.541,895.195 2133.16,964.156 2097.943,988.743 2100.323,919.781 "
           class="medium" /></g><g
         id="g349"><polygon
           id="polygon351"
           points="2032.065,918.551 2029.685,987.513 1985.994,954.727 1988.374,885.766 "
           class="dark" /></g><g
         id="g353"><path
           id="path355"
           d="m 2054.622,902.804 -22.557,15.748 -43.691,-32.786 c -13.067,3.083 -28.167,0.671 -38.53,-7.106 -14.348,-10.767 -14.191,-27.725 0.351,-37.877 14.541,-10.152 37.956,-9.65 52.304,1.117 10.364,7.777 13.156,18.782 8.433,28.119 l 43.69,32.785 z"
           inkscape:connector-curvature="0"
           class="bright" /></g><g
         id="g357"><polygon
           id="polygon359"
           points="2054.622,902.804 2052.241,971.765 2029.685,987.513 2032.065,918.551 "
           class="medium" /></g></g><g
       id="bfo"><g
         enable-background="new    "
         id="g593"><g
           id="g595"><polygon
             class="bright"
             points="1993.376,925.646 1868.991,1012.483 1792.494,955.081 1916.879,868.243 "
             id="polygon597" /></g><g
           id="g599"><polygon
             class="medium"
             points="1990.996,994.607 1866.61,1081.444 1868.991,1012.483 1993.376,925.646 "
             id="polygon601" /></g><g
           id="g603"><polygon
             class="dark"
             points="1866.61,1081.444 1790.113,1024.042 1792.494,955.081 1868.991,1012.483 "
             id="polygon605" /></g></g><g
         enable-background="new    "
         id="g607"><g
           id="g609"><polygon
             class="bright"
             points="1861.059,1018.021 1822.09,1045.227 1745.593,987.824 1784.562,960.619 "
             id="polygon611" /></g><g
           id="g613"><polygon
             class="medium"
             points="1858.678,1086.982 1819.709,1114.188 1822.09,1045.227 1861.059,1018.021 "
             id="polygon615" /></g><g
           id="g617"><polygon
             class="dark"
             points="1819.709,1114.188 1743.212,1056.785 1745.593,987.824 1822.09,1045.227 "
             id="polygon619" /></g></g><g
         enable-background="new    "
         id="g621"><g
           id="g623"><polygon
             class="bright"
             points="1817.749,1048.257 1772.072,1080.146 1695.575,1022.743 1741.252,990.855 "
             id="polygon625" /></g><g
           id="g627"><polygon
             class="medium"
             points="1815.368,1117.219 1769.691,1149.107 1772.072,1080.146 1817.749,1048.257 "
             id="polygon629" /></g><g
           id="g631"><polygon
             class="dark"
             points="1769.691,1149.107 1693.194,1091.705 1695.575,1022.743 1772.072,1080.146 "
             id="polygon633" /></g></g></g><g
       id="g711"
       enable-background="new    "><g
         id="g713"><polygon
           id="polygon715"
           points="1555.611,1120.457 1601.867,1155.166 1572.497,1175.67 1526.242,1140.961 "
           class="bright" /></g><g
         id="g717"><polygon
           id="polygon719"
           points="1601.867,1155.166 1599.486,1224.127 1570.116,1244.631 1572.497,1175.67 "
           class="medium" /></g><g
         id="g721"><polygon
           id="polygon723"
           points="1572.497,1175.67 1570.116,1244.631 1523.861,1209.922 1526.242,1140.961 "
           class="dark" /></g></g><g
       id="g725"
       enable-background="new    "><g
         id="g727"><polygon
           id="polygon729"
           points="1523.973,1144.54 1568.851,1178.216 1527.256,1207.254 1482.378,1173.578 "
           class="bright" /></g><g
         id="g731"><polygon
           id="polygon733"
           points="1568.851,1178.216 1566.47,1247.177 1524.876,1276.215 1527.256,1207.254 "
           class="medium" /></g><g
         id="g735"><polygon
           id="polygon737"
           points="1527.256,1207.254 1524.876,1276.215 1479.998,1242.54 1482.378,1173.578 "
           class="dark" /></g></g><g
       id="g739"
       enable-background="new    "><g
         id="g741"><polygon
           id="polygon743"
           points="1475.893,1176.111 1522.148,1210.82 1474.337,1244.199 1428.082,1209.489 "
           class="bright" /></g><g
         id="g745"><polygon
           id="polygon747"
           points="1522.148,1210.82 1519.768,1279.782 1471.956,1313.16 1474.337,1244.199 "
           class="medium" /></g><g
         id="g749"><polygon
           id="polygon751"
           points="1474.337,1244.199 1471.956,1313.16 1425.701,1278.451 1428.082,1209.489 "
           class="dark" /></g></g><g
       id="g767"
       enable-background="new    "><g
         id="g769"><polygon
           id="polygon771"
           points="1558.46,1229.023 1556.08,1297.984 1553.712,1296.208 1556.093,1227.246 "
           class="dark" /></g><g
         id="g773"><polygon
           id="polygon775"
           points="1632.033,1177.659 1629.653,1246.621 1556.08,1297.984 1558.46,1229.023 "
           class="medium" /></g><g
         id="g777"><polygon
           id="polygon779"
           points="1558.46,1229.023 1556.093,1227.246 1500.553,1266.021 1476.494,1247.967 1605.607,1157.829 1624.565,1172.055 1629.666,1175.882 1632.033,1177.659 "
           class="bright" /></g><g
         id="g781"><polygon
           id="polygon783"
           points="1556.093,1227.246 1553.712,1296.208 1498.172,1334.982 1500.553,1266.021 "
           class="medium" /></g><g
         id="g785"><polygon
           id="polygon787"
           points="1500.553,1266.021 1498.172,1334.982 1474.114,1316.929 1476.494,1247.967 "
           class="dark" /></g></g><g
       id="g789"
       enable-background="new    "><g
         id="g791"><polygon
           id="polygon793"
           points="1486.747,1273.648 1484.367,1342.609 1479.599,1339.031 1481.979,1270.07 "
           class="dark" /></g><g
         id="g795"><polygon
           id="polygon797"
           points="1495.458,1267.567 1493.077,1336.528 1484.367,1342.609 1486.747,1273.648 "
           class="medium" /></g><g
         id="g799"><polygon
           id="polygon801"
           points="1486.747,1273.648 1481.979,1270.07 1453.509,1289.946 1385.71,1239.071 1422.891,1213.114 1488.05,1262.008 1490.689,1263.989 1495.458,1267.567 "
           class="bright" /></g><g
         id="g803"><polygon
           id="polygon805"
           points="1481.979,1270.07 1479.599,1339.031 1451.128,1358.908 1453.509,1289.946 "
           class="medium" /></g><g
         id="g807"><polygon
           id="polygon809"
           points="1453.509,1289.946 1451.128,1358.908 1383.329,1308.032 1385.71,1239.071 "
           class="dark" /></g></g><g
       id="g811"
       enable-background="new    "><g
         id="g813"><polygon
           id="polygon815"
           points="1376.062,1245.807 1413.455,1273.867 1363.509,1308.736 1326.115,1280.676 "
           class="bright" /></g><g
         id="g817"><polygon
           id="polygon819"
           points="1413.455,1273.867 1411.075,1342.828 1361.129,1377.697 1363.509,1308.736 "
           class="medium" /></g><g
         id="g821"><polygon
           id="polygon823"
           points="1363.509,1308.736 1361.129,1377.697 1323.734,1349.637 1326.115,1280.676 "
           class="dark" /></g></g><g
       id="g825"
       enable-background="new    "><g
         id="g827"><polygon
           id="polygon829"
           points="1416.884,1274.753 1441.334,1293.101 1409.14,1315.576 1384.689,1297.229 "
           class="bright" /></g><g
         id="g831"><polygon
           id="polygon833"
           points="1441.334,1293.101 1438.953,1362.062 1406.759,1384.537 1409.14,1315.576 "
           class="medium" /></g><g
         id="g835"><polygon
           id="polygon837"
           points="1409.14,1315.576 1406.759,1384.537 1382.309,1366.19 1384.689,1297.229 "
           class="dark" /></g></g><g
       id="g839"
       enable-background="new    "><g
         id="g841"><polygon
           id="polygon843"
           points="1546.17,1245.267 1588.131,1276.754 1480.863,1351.641 1438.902,1320.154 "
           class="bright" /></g><g
         id="g845"><polygon
           id="polygon847"
           points="1588.131,1276.754 1585.75,1345.715 1478.482,1420.603 1480.863,1351.641 "
           class="medium" /></g><g
         id="g849"><polygon
           id="polygon851"
           points="1480.863,1351.641 1478.482,1420.603 1436.521,1389.115 1438.902,1320.154 "
           class="dark" /></g></g><g
       id="room-201"
       enable-background="new    "><g
         id="g855"><polygon
           id="polygon857"
           points="1557.419,1407.426 1485.14,1353.188 1591.26,1279.102 1663.539,1333.339 "
           class="bright" /></g><g
         id="g859"><polygon
           id="polygon861"
           points="1661.158,1402.301 1555.038,1476.387 1557.419,1407.426 1663.539,1333.339 "
           class="medium" /></g><g
         id="g863"><polygon
           id="polygon865"
           points="1555.038,1476.387 1482.76,1422.15 1485.14,1353.188 1557.419,1407.426 "
           class="dark" /></g></g><g
       id="g867"
       enable-background="new    "><g
         id="g869"><polygon
           id="polygon871"
           points="1624.46,1451.324 1622.08,1520.285 1617.655,1523.374 1620.036,1454.412 "
           class="medium" /></g><g
         id="g873"><polygon
           id="polygon875"
           points="1620.036,1454.412 1617.655,1523.374 1557.885,1478.523 1560.266,1409.562 "
           class="dark" /></g><g
         id="g877"><polygon
           id="polygon879"
           points="1634.22,1458.647 1624.46,1451.324 1620.036,1454.412 1560.266,1409.562 1666.386,1335.476 1735.916,1387.649 "
           class="bright" /></g><g
         id="g881"><polygon
           id="polygon883"
           points="1634.22,1458.647 1631.839,1527.608 1622.08,1520.285 1624.46,1451.324 "
           class="dark" /></g><g
         id="g885"><polygon
           id="polygon887"
           points="1735.916,1387.649 1733.535,1456.611 1631.839,1527.608 1634.22,1458.647 "
           class="medium" /></g></g><g
       id="g889"
       enable-background="new    "><g
         id="g891"><polygon
           id="polygon893"
           points="1738.251,1389.402 1805.799,1440.09 1704.103,1511.087 1636.555,1460.399 "
           class="bright" /></g><g
         id="g895"><polygon
           id="polygon897"
           points="1805.799,1440.09 1803.418,1509.051 1701.723,1580.049 1704.103,1511.087 "
           class="medium" /></g><g
         id="g899"><polygon
           id="polygon901"
           points="1704.103,1511.087 1701.723,1580.049 1634.174,1529.361 1636.555,1460.399 "
           class="dark" /></g></g><g
       id="g903"
       enable-background="new    "><g
         id="g905"><polygon
           id="polygon907"
           points="1318.869,1383.856 1251.13,1333.025 1323.92,1282.209 1391.659,1333.039 "
           class="bright" /></g><g
         id="g909"><polygon
           id="polygon911"
           points="1318.869,1383.856 1316.488,1452.817 1248.749,1401.987 1251.13,1333.025 "
           class="dark" /></g><g
         id="g913"><polygon
           id="polygon915"
           points="1391.659,1333.039 1389.278,1402.001 1316.488,1452.817 1318.869,1383.856 "
           class="medium" /></g></g><g
       id="g917"
       enable-background="new    "><g
         id="g919"><polygon
           id="polygon921"
           points="1382.651,1431.718 1321.716,1385.992 1394.505,1335.176 1455.44,1380.9 "
           class="bright" /></g><g
         id="g923"><polygon
           id="polygon925"
           points="1382.651,1431.718 1380.271,1500.679 1319.335,1454.954 1321.716,1385.992 "
           class="dark" /></g><g
         id="g927"><polygon
           id="polygon929"
           points="1455.44,1380.9 1453.06,1449.861 1380.271,1500.679 1382.651,1431.718 "
           class="medium" /></g></g><g
       id="g931"
       enable-background="new    "><g
         id="g933"><polygon
           id="polygon935"
           points="1447.598,1480.453 1385.721,1434.021 1458.511,1383.204 1520.388,1429.636 "
           class="bright" /></g><g
         id="g937"><polygon
           id="polygon939"
           points="1447.598,1480.453 1445.217,1549.414 1383.34,1502.982 1385.721,1434.021 "
           class="dark" /></g><g
         id="g941"><polygon
           id="polygon943"
           points="1520.388,1429.636 1518.007,1498.597 1445.217,1549.414 1447.598,1480.453 "
           class="medium" /></g></g><g
       id="g945"
       enable-background="new    "><g
         id="g947"><polygon
           id="polygon949"
           points="1522.995,1537.03 1450.853,1482.896 1523.643,1432.078 1595.785,1486.213 "
           class="bright" /></g><g
         id="g951"><polygon
           id="polygon953"
           points="1522.995,1537.03 1520.614,1605.991 1448.472,1551.856 1450.853,1482.896 "
           class="dark" /></g><g
         id="g955"><polygon
           id="polygon957"
           points="1595.785,1486.213 1593.404,1555.174 1520.614,1605.991 1522.995,1537.03 "
           class="medium" /></g></g><g
       id="g959"
       enable-background="new    "><g
         id="g961"><polygon
           id="polygon963"
           points="1597.521,1592.954 1525.379,1538.818 1598.169,1488.002 1670.312,1542.137 "
           class="bright" /></g><g
         id="g965"><polygon
           id="polygon967"
           points="1597.521,1592.954 1595.141,1661.915 1522.999,1607.78 1525.379,1538.818 "
           class="dark" /></g><g
         id="g969"><polygon
           id="polygon971"
           points="1670.312,1542.137 1667.931,1611.098 1595.141,1661.915 1597.521,1592.954 "
           class="medium" /></g></g></g></svg>